<svg xmlns="http://www.w3.org/2000/svg" viewBox="0 0 90.14 112.675"><path d="M83.947 20.723c-.955-.552-2.132-.553-3.09-.002l-13.88 8c-.683-6.87-6.493-12.253-13.54-12.253H18.15c-7.51 0-13.62 6.104-13.62 13.608V59.28c0 7.505 6.11 13.608 13.62 13.608h35.29c7.05 0 12.865-5.393 13.54-12.27l13.877 8.014c.478.277 1.012.414 1.545.414s1.066-.137 1.545-.414c.956-.55 1.545-1.572 1.545-2.676V23.398c0-1.103-.59-2.123-1.545-2.675zM60.867 59.28c0 4.097-3.332 7.43-7.43 7.43H18.15c-4.103 0-7.44-3.333-7.44-7.43V30.077c0-4.096 3.337-7.43 7.44-7.43h35.29c4.096 0 7.428 3.334 7.428 7.43V59.28zm18.445 1.325L67.05 53.523l.01-8.85-.01-8.862 12.262-7.065v31.86z"/></svg>