<svg xmlns="http://www.w3.org/2000/svg" xmlns:xlink="http://www.w3.org/1999/xlink" version="1.1" x="0px" y="0px" viewBox="0 0 90.14 112.675" enable-background="new 0 0 90.14 90.14" xml:space="preserve">
  <path d="M83.947,20.723c-0.955-0.552-2.132-0.553-3.089-0.002l-13.88,7.998c-0.684-6.869-6.494-12.252-13.54-12.252H18.15  c-7.51,0-13.621,6.104-13.621,13.608v29.206c0,7.504,6.11,13.607,13.621,13.607h35.289c7.052,0,12.866-5.393,13.541-12.27  l13.877,8.014c0.478,0.277,1.012,0.414,1.545,0.414s1.066-0.137,1.545-0.414c0.956-0.551,1.545-1.572,1.545-2.676V23.398  C85.491,22.295,84.902,21.275,83.947,20.723z M60.867,59.281c0,4.096-3.332,7.428-7.429,7.428H18.15  c-4.103,0-7.441-3.332-7.441-7.428V30.076c0-4.096,3.338-7.429,7.441-7.429h35.289c4.097,0,7.429,3.333,7.429,7.429V59.281z   M79.312,60.605l-12.263-7.082l0.011-8.849l-0.011-8.863l12.263-7.066V60.605z"/>
</svg>
